# AST/ASF file generated using VICON BodyLanguage
# -----------------------------------------------
:version 1.10
:name VICON
:units
  mass 1.0
  length 0.45
  angle deg
:documentation
   .ast/.asf automatically generated from VICON data using
   VICON BodyBuilder and BodyLanguage model FoxedUp or BRILLIANT.MOD
:root
   order TX TY TZ RX RY RZ
   axis XYZ
   position 0 0 0  
   orientation 0 0 0 
:bonedata
  begin
     id 1 
     name lhipjoint
     direction 0.499407 -0.589134 0.635228 
     length 2.99786 
     axis 0 0 0  XYZ
  end
  begin
     id 2 
     name lfemur
     direction 0.34202 -0.939693 0  
     length 6.89561  
     axis 0 0 20  XYZ
    dof rx ry rz
    limits (-160.0 20.0)
           (-70.0 70.0)
           (-60.0 70.0)
  end
  begin
     id 3 
     name ltibia
     direction 0.34202 -0.939693 0   
     length 8.00494   
     axis 0 0 20   XYZ
    dof rx
    limits (-10.0 170.0)
  end
  begin
     id 4 
     name lfoot
     direction 0.0680929 -0.194353 0.978565   
     length 2.06695   
     axis -90 7.62852e-016 20   XYZ
    dof rx rz
    limits (-45.0 90.0)
           (-70.0 20.0)
  end
  begin
     id 5 
     name ltoes
     direction 1.5346e-011 -4.21731e-011 1   
     length 1.04539   
     axis -90 7.62852e-016 20   XYZ
    dof rx
    limits (-90.0 20.0)
  end
  begin
     id 6 
     name rhipjoint
     direction -0.347526 -0.63762 0.687508   
     length 2.76989  
     axis 0 0 0  XYZ 
  end
  begin
     id 7 
     name rfemur
     direction -0.34202 -0.939693 0   
     length 6.97892   
     axis 0 0 -20   XYZ
    dof rx ry rz
    limits (-160.0 20.0)
           (-70.0 70.0)
           (-70.0 60.0)
  end
  begin
     id 8 
     name rtibia
     direction -0.34202 -0.939693 0   
     length 7.77056   
     axis 0 0 -20   XYZ
    dof rx
    limits (-10.0 170.0)
 end
 begin
     id 9 
     name rfoot
     direction -0.102685 -0.282124 0.953867   
     length 2.15099  
     axis -90 -7.62852e-016 -20   XYZ
    dof rx rz
    limits (-45.0 90.0)
           (-20.0 70.0)
  end
  begin
     id 10 
     name rtoes
     direction -0.000106751 -0.00118973 0.999999   
     length 1.0765   
     axis -90 -7.62852e-016 -20   XYZ
    dof rx
    limits (-90.0 20.0)
  end
  begin
     id 11 
     name lowerback
     direction -0.0190651 0.988667 0.148909   
     length 1.90627   
     axis 0 0 0   XYZ
    dof rx ry rz
    limits (-20.0 45.0)
           (-30.0 30.0)
           (-30.0 30.0)
  end
  begin
     id 12 
     name upperback
     direction -0.0180344 0.995767 -0.0901298   
     length 1.88167   
     axis 0 0 0   XYZ
    dof rx ry rz
    limits (-20.0 45.0)
           (-30.0 30.0)
           (-30.0 30.0)
  end
  begin
     id 13 
     name thorax
     direction -0.00329861 0.986394 -0.164366   
     length 1.91528   
     axis 0 0 0   XYZ
    dof rx ry rz
    limits (-20.0 45.0)
           (-30.0 30.0)
           (-30.0 30.0)
  end
  begin
     id 14 
     name lowerneck
     direction -0.0177752 0.978637 -0.204826   
     length 2.09812   
     axis 0 0 0   XYZ
    dof rx ry rz
    limits (-20.0 45.0)
           (-30.0 30.0)
           (-30.0 30.0)
  end
  begin
     id 15 
     name upperneck
     direction 0.108032 0.994134 0.00511541   
     length 2.11937   
     axis 0 0 0   XYZ
    dof rx ry rz
    limits (-20.0 45.0)
           (-30.0 30.0)
           (-30.0 30.0)
  end
  begin
     id 16
     name head
     direction 0.0423659 0.998938 0.0181058  
     length 2.14816  
     axis 0 0 0   XYZ
    dof rx ry rz
    limits (-20.0 45.0)
           (-30.0 30.0)
           (-30.0 30.0)
  end
  begin
     id 17 
     name lclavicle
     direction 0.869509 0.396908 0.293968  
     length 4.73713  
     axis 0 0 0   XYZ
    dof ry rz
    limits (-20.0 10.0)
           (0.0 20.0)
  end
  begin
     id 18 
     name lhumerus
     direction 1 -4.49e-011 3.63829e-027   
     length 4.72096   
     axis 180 -30 -90   XYZ
    dof rx ry rz
    limits (-60.0 90.0)
           (-90.0 90.0)
           (-90.0 90.0)
  end
  begin
     id 19
     name lradius
     direction 1 -4.48932e-011 7.19196e-027   
     length 3.18148   
     axis 180 -30 -90   XYZ
    dof rx
    limits (-10.0 170.0)
  end
  begin
     id 20
     name lwrist
     direction 1 -4.48995e-011 1.85462e-026   
     length 1.59074   
     axis -1.20349e-014 90 90   XYZ
    dof ry
    limits (-180.0 0.0)
 end
  begin
     id 21 
     name lhand
     direction 1 -4.48943e-011 3.70924e-026   
     length 0.848715   
     axis -2.36681e-014 90 90   XYZ
    dof rx rz
    limits (-90.0 90.0)
           (-45.0 45.0)
  end
  begin
     id 22 
     name lfingers
     direction 1 -4.48949e-011 7.41849e-026   
     length 0.684256   
     axis -4.73363e-014 90 90   XYZ
    dof rx
    limits (0.0 90.0)
  end
  begin
     id 23
     name lthumb
     direction 0.707107 -6.35018e-011 0.707107   
     length 0.982458   
     axis -90 45 2.85299e-015   XYZ
    dof rx rz
    limits (-45.0 45.0)
           (-45.0 45.0)
  end
  begin
     id 24 
     name rclavicle
     direction -0.923214 0.372787 0.0932992   
     length 4.28107  
     axis 0 0 0   XYZ 
    dof ry rz
    limits (-10.0 20.0)
           (-20.0 0.0)
  end
  begin
     id 25 
     name rhumerus
     direction -1 -4.48968e-011 6.59881e-018  
     length 4.76918   
     axis 180 30 90   XYZ
    dof rx ry rz
    limits (-90.0 60.0)
           (-90.0 90.0)
           (-90.0 90.0)
  end
  begin
     id 26 
     name rradius
     direction -1 0.000264575 -0.000152753   
     length 3.36438   
     axis 180 30 90   XYZ
    dof rx
    limits (-10.0 170.0)
  end
  begin
     id 27 
     name rwrist
     direction -1 -4.86632e-005 -0.00030086   
     length 1.68219   
     axis -1.20349e-014 -90 -90   XYZ
    dof ry
    limits (-180.0 0.0)
  end
  begin
     id 28
     name rhand
     direction -1 -4.48915e-011 3.70924e-026   
     length 0.767694   
     axis -2.36681e-014 -90 -90   XYZ
    dof rx rz
    limits (-90.0 90.0)
           (-45.0 45.0)
  end
  begin
     id 29
     name rfingers
     direction -1 -4.49015e-011 7.41849e-026   
     length 0.618935   
     axis -4.73363e-014 -90 -90   XYZ
    dof rx
    limits (0.0 90.0)
  end
  begin
     id 30
     name rthumb
     direction -0.707107 -6.34859e-011 0.707107   
     length 0.88867   
     axis -90 -45 -2.85299e-015   XYZ
    dof rx rz
    limits (-45.0 45.0)
           (-45.0 45.0)
  end
:hierarchy
  begin
    root lhipjoint rhipjoint lowerback
    lhipjoint lfemur
    lfemur ltibia
    ltibia lfoot
    lfoot ltoes
    rhipjoint rfemur
    rfemur rtibia
    rtibia rfoot
    rfoot rtoes
    lowerback upperback
    upperback thorax
    thorax lowerneck lclavicle rclavicle
    lowerneck upperneck
    upperneck head
    lclavicle lhumerus
    lhumerus lradius
    lradius lwrist
    lwrist lhand lthumb
    lhand lfingers
    rclavicle rhumerus
    rhumerus rradius
    rradius rwrist
    rwrist rhand rthumb
    rhand rfingers
  end

#!OML:ASF C:\Documents and Settings\Administrator\Desktop\New Folder (2)\VR_Jason.ASF
:FULLY-SPECIFIED
:DEGREES
851
root -1.68378 17.9663 0.139602 10.1004 -3.92246 13.6728
lowerback -19.8838 0.669434 -3.15118
upperback 6.40622 2.15125 -2.08052
thorax 18.8631 0.752179 0.0961686
lowerneck 22.2719 -4.6513 -5.97624
upperneck 1.73579 -7.03927 10.3609
head -2.37684 -4.01868 4.74028
rclavicle -2.66371e-014 -7.95139e-015
rhumerus 6.61373 -35.1316 -52.759
rradius 89.1177
rwrist -31.8578
rhand 16.7212 12.9931
rfingers 7.12502
rthumb 41.4693 -11.7723
lclavicle -2.66371e-014 -7.95139e-015
lhumerus 24.2557 3.53229 62.7573
lradius 72.2653
lwrist 46.7547
lhand 3.48375 31.6743
lfingers 7.12502
lthumb 28.9227 59.4513
rfemur -20.6596 -2.40832 11.8399
rtibia 26.5025
rfoot -16.8107 -17.8012
rtoes -0.699193
lfemur -71.6897 -2.09827 -11.2401
ltibia 76.3272
lfoot 33.4188 2.49247
ltoes -4.3083
852
root -1.69037 17.9544 0.156786 9.91142 -3.89606 13.4191
lowerback -19.7391 0.685357 -3.15782
upperback 6.30239 2.17142 -2.13439
thorax 18.6378 0.769201 0.0427113
lowerneck 22.3342 -4.63281 -5.82891
upperneck 1.97609 -6.99901 10.297
head -2.32248 -3.99455 4.69136
rclavicle -3.57812e-015 9.54166e-015
rhumerus 6.50641 -35.2617 -52.6695
rradius 88.7004
rwrist -32.2847
rhand 16.2618 12.831
rfingers 7.12502
rthumb 41.038 -12.0733
lclavicle -3.57812e-015 9.54166e-015
lhumerus 24.124 3.35858 62.6507
lradius 72.4348
lwrist 46.7551
lhand 3.30577 31.4574
lfingers 7.12502
lthumb 28.7527 59.2634
rfemur -20.3524 -2.05983 12.1339
rtibia 26.4855
rfoot -16.4744 -17.9236
rtoes -0.273961
lfemur -72.0683 -1.79108 -11.4467
ltibia 80.0956
lfoot 33.6295 1.90726
ltoes -6.33531
853
root -1.70419 17.9436 0.175348 9.69625 -3.65504 13.0952
lowerback -19.713 0.637383 -3.15787
upperback 6.26317 2.10791 -2.16285
thorax 18.5733 0.745298 -0.0129879
lowerneck 22.4375 -4.63594 -5.776
upperneck 2.18077 -7.00388 10.3714
head -2.27452 -4.0012 4.70637
rclavicle -8.74653e-015 1.59028e-014
rhumerus 6.42058 -35.5536 -52.6152
rradius 88.3145
rwrist -32.7394
rhand 16.0221 12.7705
rfingers 7.12502
rthumb 40.8129 -12.205
lclavicle -8.74653e-015 1.59028e-014
lhumerus 24.1545 3.26196 62.6272
lradius 72.3634
lwrist 46.5348
lhand 3.29286 31.1273
lfingers 7.12502
lthumb 28.7404 58.9355
rfemur -19.9891 -1.65884 12.5443
rtibia 26.5671
rfoot -16.5 -18.1734
rtoes 1.37982
lfemur -72.3912 -1.59326 -11.6307
ltibia 83.6829
lfoot 33.9973 1.00583
ltoes -9.0685
854
root -1.72098 17.932 0.192063 9.5906 -3.35053 12.7348
lowerback -19.848 0.594322 -3.17724
upperback 6.25067 2.05867 -2.14709
thorax 18.6439 0.718942 0.000960515
lowerneck 22.3925 -4.71119 -5.78816
upperneck 2.43459 -7.11904 10.4356
head -2.17907 -4.0576 4.72834
rclavicle -6.75868e-015 1.51076e-014
rhumerus 6.55535 -36.1072 -52.6466
rradius 87.9611
rwrist -33.4506
rhand 16.4242 12.6295
rfingers 7.12502
rthumb 41.1905 -12.226
lclavicle -6.75868e-015 1.51076e-014
lhumerus 24.2814 3.19249 62.6198
lradius 72.4412
lwrist 46.3862
lhand 3.50496 31.1749
lfingers 7.12502
lthumb 28.943 58.9484
rfemur -19.7411 -1.329 13.0128
rtibia 26.6743
rfoot -16.6664 -18.3825
rtoes 2.72352
lfemur -72.7933 -1.44058 -11.8292
ltibia 87.0339
lfoot 34.9303 0.551535
ltoes -8.85708
855
root -1.73741 17.92 0.201792 9.55742 -3.14012 12.3638
lowerback -19.9419 0.600169 -3.16963
upperback 6.27296 2.06562 -2.1179
thorax 18.7318 0.718665 0.0343488
lowerneck 22.1233 -4.78958 -5.94556
upperneck 2.64096 -7.26314 10.5844
head -2.05709 -4.12834 4.79376
rclavicle 4.77083e-015 -5.56597e-015
rhumerus 6.80307 -36.6399 -52.5207
rradius 87.593
rwrist -34.3998
rhand 16.8108 12.1949
rfingers 7.12502
rthumb 41.5534 -12.5431
lclavicle 4.77083e-015 -5.56597e-015
lhumerus 24.5321 3.06834 62.6043
lradius 72.6293
lwrist 46.5014
lhand 3.54347 31.1626
lfingers 7.12502
lthumb 28.9798 58.9298
rfemur -19.6474 -0.978644 13.4835
rtibia 26.7683
rfoot -16.8835 -18.7734
rtoes 2.11543
lfemur -73.2621 -1.18947 -12.1806
ltibia 90.0791
lfoot 35.9801 0.514479
ltoes -6.76179
856
root -1.75195 17.9098 0.206236 9.55741 -2.94436 12.0318
lowerback -20.0099 0.615299 -3.13867
upperback 6.32479 2.08675 -2.13439
thorax 18.8442 0.731165 0.00489152
lowerneck 21.875 -4.83738 -6.20645
upperneck 2.74631 -7.37958 10.9388
head -1.96255 -4.19732 4.94157
rclavicle -2.28602e-014 -3.89618e-014
rhumerus 7.13415 -37.117 -52.4747
rradius 87.1795
rwrist -34.8406
rhand 16.8194 11.7569
rfingers 7.12502
rthumb 41.5614 -12.9785
lclavicle -2.28602e-014 -3.89618e-014
lhumerus 24.7276 2.91134 62.5283
lradius 72.869
lwrist 46.6755
lhand 3.24871 30.8978
lfingers 7.12502
lthumb 28.6982 58.713
rfemur -19.6198 -0.854597 13.8768
rtibia 26.8474
rfoot -17.164 -18.9549
rtoes 2.08479
lfemur -73.7779 -0.977174 -12.7754
ltibia 92.7635
lfoot 36.5007 1.01789
ltoes -4.55047
857
root -1.76364 17.902 0.210641 9.56077 -2.77304 11.7308
lowerback -20.0224 0.636645 -3.12451
upperback 6.32062 2.1135 -2.14069
thorax 18.8471 0.745021 -0.000893309
lowerneck 21.7135 -4.88983 -6.34427
upperneck 2.80075 -7.4768 11.0998
head -1.90559 -4.24936 5.01197
rclavicle -9.93923e-016 1.82882e-014
rhumerus 7.38894 -37.5682 -52.4131
rradius 86.8772
rwrist -34.9506
rhand 16.8097 11.5331
rfingers 7.12502
rthumb 41.5523 -13.2052
lclavicle -9.93923e-016 1.82882e-014
lhumerus 24.8268 2.84382 62.5701
lradius 73.1095
lwrist 46.6754
lhand 3.02259 30.7419
lfingers 7.12502
lthumb 28.4821 58.5935
rfemur -19.5523 -0.76501 14.1793
rtibia 26.8782
rfoot -17.4885 -18.8017
rtoes 3.93072
lfemur -74.2871 -0.870549 -13.5761
ltibia 95.0568
lfoot 36.9477 0.960069
ltoes -5.35422
858
root -1.77206 17.8934 0.22963 9.54266 -2.61465 11.4551
lowerback -20.1427 0.664962 -3.13812
upperback 6.2706 2.16095 -2.14709
thorax 18.8592 0.764355 0.0182167
lowerneck 21.7952 -4.94141 -6.42417
upperneck 2.73661 -7.56023 11.1714
head -1.92402 -4.29762 5.05657
rclavicle 1.09332e-014 -1.03368e-014
rhumerus 7.46075 -37.7939 -52.1749
rradius 86.5486
rwrist -34.8212
rhand 16.1291 11.7701
rfingers 7.12502
rthumb 40.9134 -13.1738
lclavicle 1.09332e-014 -1.03368e-014
lhumerus 24.9576 2.78985 62.7046
lradius 73.2421
lwrist 46.5974
lhand 2.88091 30.7432
lfingers 7.12502
lthumb 28.3468 58.6174
rfemur -19.4164 -0.849767 14.4673
rtibia 26.9204
rfoot -17.7584 -18.5145
rtoes 5.3178
lfemur -74.6244 -0.835815 -14.6006
ltibia 97.0077
lfoot 37.0847 -0.553453
ltoes -9.09925
859
root -1.77993 17.8815 0.259327 9.57271 -2.39967 11.0595
lowerback -20.4402 0.721244 -2.93119
upperback 6.25419 2.20172 -2.18981
thorax 19.039 0.807719 -0.131531
lowerneck 21.8094 -5.01621 -6.45789
upperneck 2.73543 -7.66471 11.2597
head -1.91309 -4.35435 5.09618
rclavicle 1.15295e-014 7.95139e-015
rhumerus 7.69127 -38.0368 -52.1027
rradius 86.0698
rwrist -34.5814
rhand 15.5477 12.0549
rfingers 7.12502
rthumb 40.3669 -13.0594
lclavicle 1.15295e-014 7.95139e-015
lhumerus 25.0955 2.81986 62.9211
lradius 73.2368
lwrist 46.3826
lhand 2.88464 30.7347
lfingers 7.12502
lthumb 28.3503 58.6084
rfemur -19.3485 -1.28707 14.969
rtibia 27.058
rfoot -17.546 -18.4318
rtoes 5.0768
lfemur -74.9073 -0.793463 -15.7009
ltibia 98.6566
lfoot 36.56 -2.91517
ltoes -13.2842
860
root -1.79378 17.8647 0.268648 9.68122 -2.12539 10.6503
lowerback -20.504 0.750215 -2.80432
upperback 6.16718 2.20451 -2.19128
thorax 18.9717 0.825203 -0.202517
lowerneck 21.7136 -5.10275 -6.41414
upperneck 2.84418 -7.77461 11.1966
head -1.85926 -4.40192 5.06873
rclavicle -5.96354e-016 4.77083e-015
rhumerus 7.86536 -38.2701 -51.9751
rradius 85.6467
rwrist -34.7344
rhand 15.5884 12.1671
rfingers 7.12502
rthumb 40.4052 -12.9355
lclavicle -5.96354e-016 4.77083e-015
lhumerus 25.1646 2.82185 63.1561
lradius 73.1626
lwrist 46.2044
lhand 3.03197 30.4678
lfingers 7.12502
lthumb 28.4911 58.318
rfemur -19.5268 -1.71741 15.5504
rtibia 27.2819
rfoot -17.2131 -18.6553
rtoes 3.24542
lfemur -75.4282 -0.745712 -16.8924
ltibia 99.9548
lfoot 35.8213 -5.33004
ltoes -17.688
861
root -1.80762 17.8456 0.261553 9.81931 -1.87996 10.3431
lowerback -20.3588 0.753508 -2.83822
upperback 6.03616 2.19905 -2.15727
thorax 18.7059 0.81969 -0.145153
lowerneck 21.9063 -5.10009 -6.55482
upperneck 2.64653 -7.79526 11.2723
head -1.93703 -4.42406 5.12857
rclavicle -1.21259e-014 5.56597e-015
rhumerus 8.18579 -38.4762 -51.9843
rradius 85.2927
rwrist -34.8226
rhand 15.7588 12.1849
rfingers 7.12502
rthumb 40.5654 -12.868
lclavicle -1.21259e-014 5.56597e-015
lhumerus 25.1054 2.74053 63.3039
lradius 73.2708
lwrist 46.2652
lhand 3.01022 30.3223
lfingers 7.12502
lthumb 28.4703 58.1759
rfemur -19.8481 -2.13097 15.9886
rtibia 27.5529
rfoot -17.4142 -18.4872
rtoes 1.2881
lfemur -76.0748 -0.716648 -18.3027
ltibia 100.795
lfoot 35.0929 -7.15965
ltoes -21.3998
862
root -1.82151 17.8257 0.258525 9.87109 -1.68476 9.99661
lowerback -20.235 0.793564 -2.78459
upperback 5.98592 2.22748 -2.14268
thorax 18.5622 0.839252 -0.149251
lowerneck 22.3121 -5.04267 -6.69187
upperneck 2.15972 -7.72487 11.4909
head -2.13812 -4.41702 5.24428
rclavicle 1.78906e-015 -1.90833e-014
rhumerus 8.65291 -38.6694 -52.1879
rradius 84.957
rwrist -34.694
rhand 15.5165 12.5379
rfingers 7.12502
rthumb 40.3376 -12.5854
lclavicle 1.78906e-015 -1.90833e-014
lhumerus 25.0502 2.63863 63.3342
lradius 73.4209
lwrist 46.3535
lhand 2.95911 30.3565
lfingers 7.12502
lthumb 28.4215 58.2182
rfemur -20.0399 -2.70106 16.4828
rtibia 27.8668
rfoot -17.7943 -18.0551
rtoes 0.579031
lfemur -76.4427 -0.71892 -19.6513
ltibia 101.15
lfoot 34.2287 -7.79743
ltoes -23.199
863
root -1.83751 17.811 0.253989 9.91934 -1.49944 9.63988
lowerback -20.1906 0.854433 -2.72973
upperback 6.00317 2.28891 -2.11573
thorax 18.5555 0.870076 -0.127511
lowerneck 22.4483 -5.05135 -6.72424
upperneck 1.86934 -7.72508 11.5554
head -2.24257 -4.42739 5.28272
rclavicle -3.57812e-015 1.59028e-014
rhumerus 9.11538 -38.8703 -52.2803
rradius 84.6299
rwrist -34.481
rhand 14.9575 13.2103
rfingers 7.12502
rthumb 39.8116 -12.0723
lclavicle -3.57812e-015 1.59028e-014
lhumerus 25.1013 2.59106 63.3126
lradius 73.5243
lwrist 46.4972
lhand 2.86124 30.3701
lfingers 7.12502
lthumb 28.328 58.2474
rfemur -20.3042 -3.34836 17.0275
rtibia 28.2831
rfoot -18.1959 -17.7486
rtoes 0.800798
lfemur -76.8287 -0.738829 -20.927
ltibia 100.98
lfoot 33.3002 -6.99421
ltoes -20.6575
864
root -1.84914 17.805 0.245604 10.0239 -1.36821 9.40576
lowerback -20.1382 0.901548 -2.78898
upperback 5.99745 2.35266 -2.03602
thorax 18.5068 0.884493 0.0220639
lowerneck 22.4388 -5.04044 -7.00643
upperneck 1.77271 -7.77122 11.6444
head -2.25291 -4.45619 5.3601
rclavicle 1.82882e-014 -7.95139e-015
rhumerus 10.0093 -39.142 -52.5339
rradius 84.2788
rwrist -34.1708
rhand 14.9408 13.3566
rfingers 7.12502
rthumb 39.7959 -11.9307
lclavicle 1.82882e-014 -7.95139e-015
lhumerus 25.0809 2.64531 63.5136
lradius 73.6965
lwrist 46.6754
lhand 2.50507 30.4596
lfingers 7.12502
lthumb 27.9875 58.3929
rfemur -20.7775 -4.13463 17.403
rtibia 28.81
rfoot -18.578 -17.3131
rtoes 0.425854
lfemur -77.2759 -0.785491 -22.4256
ltibia 100.35
lfoot 30.9675 -7.47357
ltoes -18.5251
865
root -1.85038 17.7837 0.239089 10.1856 -1.29234 9.29239
lowerback -20.1257 0.952016 -2.80366
upperback 5.92903 2.42053 -2.03108
thorax 18.4091 0.913564 0.0605001
lowerneck 22.4742 -5.00333 -7.22945
upperneck 1.62726 -7.76744 11.717
head -2.29202 -4.4611 5.42329
rclavicle 8.54774e-015 1.51076e-014
rhumerus 10.7834 -39.2899 -52.8817
rradius 84.1216
rwrist -33.9092
rhand 14.9507 13.1934
rfingers 7.12502
rthumb 39.8052 -12.0911
lclavicle 8.54774e-015 1.51076e-014
lhumerus 24.8718 2.68171 63.5813
lradius 73.8268
lwrist 46.6856
lhand 2.26261 30.6771
lfingers 7.12502
lthumb 27.7557 58.6481
rfemur -21.3691 -5.21987 17.6166
rtibia 29.4433
rfoot -18.8513 -16.4735
rtoes 0.019659
lfemur -77.5767 -0.806971 -24.2704
ltibia 99.5637
lfoot 26.519 -9.85087
ltoes -20.9795
